<?xml version="1.0" standalone="no"?>
<!DOCTYPE svg PUBLIC "-//W3C//DTD SVG 20010904//EN"
 "http://www.w3.org/TR/2001/REC-SVG-20010904/DTD/svg10.dtd">
<svg version="1.0" xmlns="http://www.w3.org/2000/svg"
 width="260.000000pt" height="260.000000pt" viewBox="0 0 260.000000 260.000000"
 preserveAspectRatio="xMidYMid meet">
<metadata>
Created by potrace 1.11, written by Peter Selinger 2001-2013
</metadata>
<g transform="translate(0.000000,260.000000) scale(0.100000,-0.100000)"
fill="#000000" stroke="none">
<path d="M712 2547 c-95 -111 -147 -149 -264 -195 -21 -9 -25 -16 -21 -34 10
-39 53 -98 77 -108 13 -4 38 -22 57 -39 34 -31 132 -85 159 -87 36 -3 107 -28
132 -46 l28 -19 -22 -42 c-11 -23 -20 -43 -20 -44 6 -12 -122 -226 -169 -284
-27 -34 -20 -47 73 -149 37 -42 76 -91 86 -110 47 -87 77 -136 89 -143 20 -12
16 -39 -14 -93 -61 -113 -123 -237 -123 -249 0 -6 -14 -32 -32 -56 -32 -44
-78 -127 -78 -142 0 -4 -18 -32 -40 -61 -22 -29 -40 -57 -40 -62 0 -5 -18 -35
-40 -68 -22 -32 -40 -64 -40 -71 0 -7 -6 -18 -14 -24 -8 -6 -19 -33 -26 -59
-6 -26 -16 -52 -21 -58 -4 -6 -11 -46 -15 -90 l-6 -80 40 -33 c43 -33 102 -47
134 -30 22 12 41 70 32 103 -8 32 -27 49 -59 49 -47 0 -26 50 37 90 31 20 88
23 136 9 17 -6 32 -9 32 -6 0 4 71 -29 100 -47 8 -5 33 -18 55 -30 22 -12 54
-32 72 -45 17 -13 38 -24 46 -24 8 0 20 -7 27 -15 7 -8 17 -12 22 -9 5 3 31
-16 57 -42 25 -27 59 -57 73 -67 25 -16 30 -16 65 -1 21 9 47 21 58 27 11 6
36 11 56 13 19 1 52 14 74 28 21 14 46 26 56 26 10 0 38 10 61 22 24 12 51 24
61 25 23 4 193 91 210 107 7 7 28 21 47 33 19 12 49 38 65 59 17 20 40 47 52
60 28 30 75 127 79 163 6 53 13 92 23 128 6 20 8 39 6 43 -2 3 2 24 9 45 10
27 11 48 4 72 -5 18 -6 39 -2 45 8 12 13 85 17 263 2 61 7 116 11 123 4 6 2
20 -3 31 -6 11 -7 29 -3 41 4 12 4 56 0 98 -4 42 -10 97 -12 122 -3 25 -14 79
-26 120 -11 41 -23 86 -26 100 -3 14 -9 29 -15 34 -5 6 -9 20 -9 31 0 12 -9
30 -20 40 -11 10 -20 24 -20 30 0 7 -11 21 -25 31 -14 10 -25 27 -25 38 0 30
-59 77 -156 125 -49 24 -106 55 -126 68 -21 12 -46 23 -56 23 -11 0 -48 9 -83
20 -35 12 -81 23 -101 25 -21 2 -43 7 -50 12 -7 4 -20 8 -28 10 -49 7 -75 12
-77 13 -2 2 -6 3 -10 5 -5 1 -20 7 -34 13 -15 6 -40 11 -55 10 -30 0 -55 5
-180 40 -119 32 -225 94 -252 148 -19 36 -50 36 -80 1z m69 -68 c47 -46 126
-80 339 -145 30 -9 73 -19 95 -21 22 -3 48 -9 57 -14 9 -5 41 -9 70 -9 30 0
61 -7 72 -15 10 -7 44 -17 75 -21 31 -3 68 -13 83 -20 15 -8 30 -14 33 -14 23
4 167 -64 214 -101 13 -11 29 -19 35 -19 13 -1 56 -35 56 -45 0 -3 16 -23 36
-43 83 -84 156 -290 171 -482 12 -142 4 -569 -13 -690 -5 -35 -17 -110 -19
-120 -1 -3 -7 -32 -14 -65 -22 -98 -82 -199 -162 -273 -48 -44 -193 -125 -264
-148 -27 -9 -69 -24 -92 -35 -24 -10 -51 -19 -61 -19 -10 0 -23 -5 -30 -12 -7
-7 -12 -9 -12 -5 0 3 -42 -9 -93 -27 -110 -39 -119 -38 -207 44 -30 28 -72 56
-92 62 -21 6 -38 14 -38 18 0 7 -172 94 -205 103 -48 13 -137 17 -173 7 -21
-5 -58 -23 -80 -40 -23 -16 -44 -30 -47 -30 -11 0 -4 37 10 57 8 12 16 29 18
40 2 10 9 29 17 43 8 14 31 55 50 91 19 37 59 106 88 154 28 48 52 91 52 95 0
5 16 29 35 54 19 26 35 50 35 55 0 5 7 14 15 21 8 7 15 9 15 6 0 -7 -31 -58
-40 -66 -3 -3 -30 -54 -60 -114 -30 -60 -85 -163 -122 -228 -38 -66 -66 -124
-63 -129 9 -14 31 -11 69 11 22 12 38 15 42 9 4 -7 10 -6 19 1 20 17 152 -10
188 -38 7 -5 38 -17 70 -26 32 -10 70 -28 85 -40 15 -13 49 -33 75 -46 27 -12
51 -29 54 -36 2 -7 20 -18 39 -24 19 -6 34 -18 34 -26 0 -23 61 -21 94 2 11 8
32 14 46 14 29 0 117 28 200 64 30 13 80 34 110 47 30 13 62 30 70 38 8 8 44
33 80 56 83 55 168 136 174 169 2 6 8 29 14 51 28 100 44 182 47 258 2 45 7
116 11 157 9 101 9 354 0 465 -13 170 -24 260 -34 292 -16 48 -59 130 -82 155
-11 12 -20 26 -20 31 0 16 -103 110 -165 152 -70 46 -140 74 -230 91 -16 3
-35 9 -41 15 -7 5 -32 12 -55 15 -24 3 -48 9 -54 13 -5 5 -37 12 -70 16 -33 4
-69 8 -80 9 -23 3 -90 21 -155 41 -25 8 -60 17 -78 20 -18 3 -41 9 -50 14 -9
5 -30 15 -47 22 -16 8 -63 34 -103 58 l-74 45 -36 -40 c-51 -54 -99 -88 -149
-104 -49 -15 -55 -35 -15 -53 15 -6 29 -15 32 -18 9 -12 229 -127 278 -146 49
-19 53 -20 77 -22 8 0 19 -9 24 -19 12 -22 -31 -133 -83 -215 -20 -31 -36 -60
-36 -66 0 -5 -3 -11 -7 -13 -18 -7 -87 -125 -84 -142 4 -24 66 -121 102 -159
16 -16 29 -35 29 -42 0 -6 15 -29 34 -51 18 -21 47 -67 65 -100 l32 -62 -37
-66 c-41 -76 -54 -82 -24 -12 11 26 20 53 20 60 0 15 -65 143 -84 166 -7 8
-20 32 -30 53 -9 20 -20 37 -24 37 -4 0 -16 14 -25 30 -10 17 -36 51 -58 76
-21 25 -39 50 -39 56 0 6 12 27 26 45 15 19 63 109 109 199 62 126 79 168 71
178 -19 24 -199 105 -208 94 -2 -1 -19 8 -38 22 -19 14 -42 30 -51 35 -46 29
-118 87 -123 101 -7 19 1 34 18 34 18 0 112 68 176 128 30 28 56 52 57 52 1 0
17 -14 34 -31z m285 -439 c16 -6 47 -12 69 -13 l40 -4 2 -84 c1 -46 2 -104 1
-129 0 -25 0 -65 0 -90 2 -94 2 -156 -2 -180 -2 -14 -4 -35 -5 -47 -1 -31 -12
-29 -53 11 -39 38 -90 121 -126 206 -21 48 -23 65 -18 140 3 47 10 101 15 120
24 89 23 89 77 70z m512 -64 c26 -14 64 -42 85 -63 45 -45 137 -171 137 -187
0 -6 7 -23 14 -38 20 -38 28 -80 32 -165 3 -70 2 -72 -29 -96 -18 -13 -63 -71
-101 -128 -39 -56 -77 -110 -85 -118 -9 -9 -36 -48 -61 -86 -51 -80 -85 -125
-94 -125 -4 0 -5 15 -4 34 2 23 13 41 36 61 18 15 40 44 48 64 8 20 28 50 43
66 15 17 45 59 66 95 21 36 61 98 88 138 42 60 50 80 49 113 -1 23 -5 45 -8
51 -4 6 -8 25 -9 42 -3 49 -69 176 -125 238 -52 58 -110 95 -130 83 -5 -3 -10
-32 -9 -63 1 -31 -2 -156 -5 -277 -4 -121 -7 -245 -7 -275 1 -202 -6 -260 -31
-260 -11 0 -6 149 5 168 5 7 6 20 3 30 -7 22 -7 54 -1 232 6 184 6 253 1 364
-5 90 5 126 32 126 7 0 34 -11 60 -24z m23 -89 c40 -35 88 -101 110 -154 11
-26 24 -57 29 -68 5 -11 11 -33 14 -50 3 -16 8 -39 11 -50 4 -14 -4 -30 -24
-52 -16 -18 -42 -55 -58 -83 -15 -28 -36 -53 -46 -56 -12 -4 -16 -12 -12 -25
5 -13 -3 -35 -21 -62 -15 -23 -33 -52 -40 -65 -10 -20 -12 -14 -18 50 -3 40
-4 88 -1 107 4 34 7 173 4 221 -1 14 1 70 6 125 4 55 7 119 7 143 -1 48 3 50
39 19z m-428 -634 c-2 -49 -5 -223 -6 -388 -1 -165 -5 -305 -10 -312 -8 -13
-57 7 -92 37 -11 10 -31 21 -45 25 -14 4 -38 18 -55 30 -16 12 -54 33 -82 46
-29 13 -53 28 -53 32 0 10 17 45 99 199 33 64 61 123 61 131 0 8 10 27 22 42
12 16 34 50 48 76 51 96 104 178 111 174 4 -3 5 -44 2 -92z m672 -241 c-1
-141 -4 -273 -8 -292 -4 -19 -9 -47 -11 -61 -19 -120 -118 -265 -228 -335 -46
-29 -113 -53 -126 -45 -6 3 -10 24 -10 46 0 22 -5 83 -10 135 -8 91 -8 183 2
225 2 11 5 32 5 46 1 15 14 42 31 60 16 19 37 49 45 67 9 17 37 60 64 95 26
34 67 91 91 127 24 36 60 82 79 103 20 22 45 50 55 63 11 13 20 24 20 24 1 0
1 -116 1 -258z m-960 -32 c-9 -16 -17 -30 -20 -30 -2 0 1 14 6 30 6 17 15 30
20 30 5 0 3 -13 -6 -30z m-372 -734 c-8 -38 15 -96 37 -96 10 0 20 6 23 13 2
6 7 9 11 6 15 -14 -7 -39 -34 -39 -51 0 -74 62 -51 138 1 1 5 2 10 2 4 0 6
-11 4 -24z"/>
<path d="M1033 2022 c-13 -9 -25 -95 -26 -192 0 -62 5 -87 27 -135 15 -33 36
-69 46 -80 10 -11 24 -33 30 -49 8 -22 13 -27 22 -18 8 8 13 73 15 200 1 103
4 200 5 217 3 28 0 31 -37 38 -22 5 -47 13 -56 17 -9 5 -20 5 -26 2z m82 -151
c-3 -61 -2 -127 3 -148 4 -21 5 -54 2 -73 l-6 -35 -22 35 c-45 70 -63 174 -46
270 9 56 12 60 44 60 l30 0 -5 -109z"/>
<path d="M1117 1227 c-14 -10 -149 -273 -218 -422 -26 -56 -33 -95 -17 -95 25
0 165 -77 186 -102 20 -23 26 -26 42 -16 18 11 19 27 18 228 0 118 4 257 9
308 9 101 6 119 -20 99z m-14 -119 c-4 -18 -8 -129 -7 -245 0 -117 -3 -213 -6
-213 -3 0 -30 14 -60 30 -30 17 -67 36 -82 42 -16 7 -28 18 -28 24 0 18 26 81
100 239 23 50 49 105 57 123 8 17 20 32 25 32 5 0 6 -13 1 -32z"/>
<path d="M1763 1118 c-15 -24 -47 -68 -73 -98 -25 -30 -72 -91 -105 -135 -33
-44 -66 -86 -73 -94 -28 -30 -33 -63 -33 -261 -1 -147 1 -160 16 -160 18 0 20
-17 3 -22 -16 -6 -2 -38 17 -38 8 0 33 11 55 25 22 14 44 25 50 25 5 0 10 6
10 13 0 6 10 24 23 39 12 15 38 49 57 75 19 27 41 52 47 56 7 4 13 16 13 25 0
9 10 42 21 72 20 50 22 76 23 275 1 121 0 226 -2 233 -7 22 -21 13 -49 -30z
m18 -70 c1 -7 1 -15 1 -18 0 -3 -3 -71 -6 -150 -3 -80 -8 -156 -11 -170 -9
-45 -49 -150 -57 -150 -4 0 -8 -6 -8 -13 0 -21 -127 -175 -150 -182 -35 -11
-32 -29 -27 215 l2 145 59 84 c32 47 63 89 67 95 5 6 21 25 35 41 13 17 37 49
52 72 27 44 41 53 43 31z"/>
</g>
</svg>
